# xmcd
# Copyright (C) 1995-1998 Ti Kan
#
# Track frame offsets:
#       150
#       18990
#       30525
#       53377
#       67995
#       91710
#       107820
#       126332
#       142482
#       158830
#
# Disc length: 2441 seconds
#
# Revision: 0
# Processed by: cddbd v1.5.2PL0 Copyright (c) Steve Scherf et al.
# Submitted via: CD-Import v1.0
#
DISCID=7e09870a
DTITLE=Soft Cell - Non-Stop Erotic Cabaret
DYEAR=2002
DGENRE=
TTITLE0=Frustration
TTITLE1=Tainted Love
TTITLE2=Seedy Films
TTITLE3=Youth
TTITLE4=Sex Dwarf
TTITLE5=Entertain Me
TTITLE6=Chips On My Shoulder
TTITLE7=Bedsitter
TTITLE8=Secret Life
TTITLE9=Say Hello, Wave Goodbye
EXTD=
EXTT0=
EXTT1=
EXTT2=
EXTT3=
EXTT4=
EXTT5=
EXTT6=
EXTT7=
EXTT8=
EXTT9=
PLAYORDER=
